<?xml version="1.0" standalone="no"?><!-- Generator: Gravit.io --><svg xmlns="http://www.w3.org/2000/svg" xmlns:xlink="http://www.w3.org/1999/xlink" style="isolation:isolate" viewBox="745.252 632 306.974 243.15" width="306.974" height="243.15"><g id="g7863"><path d="M 760.608 778.197 L 829.128 778.197 C 831.987 778.197 834.309 780.518 834.309 783.378 L 834.309 783.566 C 834.309 786.425 831.987 788.747 829.128 788.747 L 760.608 788.747 C 757.749 788.747 755.427 786.425 755.427 783.566 L 755.427 783.378 C 755.427 780.518 757.749 778.197 760.608 778.197 Z" style="stroke:none;fill:#565575;stroke-miterlimit:10;"/><path d="M 766.806 779.68 L 811.837 779.68 C 812.675 779.68 813.356 780.361 813.356 781.199 L 813.356 781.254 C 813.356 782.092 812.675 782.772 811.837 782.772 L 766.806 782.772 C 765.968 782.772 765.287 782.092 765.287 781.254 L 765.287 781.199 C 765.287 780.361 765.968 779.68 766.806 779.68 Z" style="stroke:none;fill:#CBE3E7;stroke-miterlimit:10;"/><path d=" M 822.704 763.998 C 822.565 763.998 822.424 764.008 822.281 764.025 L 800.292 767.035 C 798.014 767.347 796.143 768.953 796.143 771.336 L 796.143 774.962 L 796.143 791.978 L 796.143 795.605 C 796.143 797.987 798.014 799.593 800.292 799.905 L 822.281 802.916 C 824.56 803.227 826.43 800.997 826.43 798.615 L 826.43 791.978 L 826.43 774.962 L 826.43 768.325 C 826.43 766.092 824.787 763.993 822.704 763.996 L 822.704 763.998 Z " fill="rgb(255,99,110)"/><path d=" M 822.704 763.998 C 822.565 763.998 822.423 764.008 822.281 764.025 L 816.014 764.882 C 812.733 772.176 811.064 779.688 811.048 787.232 C 811.108 792.076 811.85 796.909 813.266 801.682 L 822.281 802.916 C 824.56 803.227 826.43 800.998 826.43 798.615 L 826.43 791.978 L 826.43 774.963 L 826.43 768.325 C 826.43 766.091 824.787 763.993 822.704 763.996 L 822.704 763.998 Z " fill="rgb(239,73,76)"/><path d=" M 967.402 699.305 C 966.639 699.322 965.876 699.35 965.113 699.389 L 965.113 699.338 C 882.942 699.753 816.694 738.979 816.671 787.233 C 816.704 835.484 882.949 874.704 965.113 875.118 L 965.113 875.032 C 965.876 875.082 966.638 875.121 967.402 875.15 C 1014.249 875.15 1052.225 835.786 1052.225 787.228 C 1052.225 763.91 1043.289 741.546 1027.382 725.057 C 1011.474 708.569 989.899 699.305 967.402 699.305 L 967.402 699.305 Z " fill="rgb(255,179,120)"/><path d=" M 967.402 699.305 C 967.324 699.308 967.246 699.311 967.169 699.315 C 959.529 725.925 955.482 756.284 955.45 787.228 C 955.484 818.172 959.532 848.531 967.173 875.139 C 967.25 875.143 967.327 875.146 967.404 875.15 C 971.451 875.113 975.491 874.777 979.493 874.143 C 972.031 847.769 968.082 817.78 968.046 787.226 C 968.075 756.669 972.019 726.673 979.476 700.29 C 975.48 699.664 971.445 699.334 967.404 699.305 L 967.402 699.305 Z  M 979.475 700.29 C 1021.196 706.508 1052.183 743.538 1052.225 787.228 C 1052.183 743.538 1021.196 706.508 979.475 700.29 L 979.475 700.29 Z  M 979.508 874.143 C 982.299 873.726 985.068 873.165 987.805 872.462 C 985.068 873.165 982.299 873.726 979.508 874.143 L 979.508 874.143 Z  M 1052.122 790.712 C 1052.04 792.525 1051.904 794.335 1051.714 796.14 C 1051.904 794.335 1052.04 792.525 1052.122 790.712 L 1052.122 790.712 Z  M 1051.269 799.945 C 1051.023 801.657 1050.728 803.36 1050.385 805.053 C 1050.728 803.36 1051.023 801.657 1051.269 799.945 L 1051.269 799.945 Z  M 1049.66 808.396 C 1049.221 810.208 1048.727 812.005 1048.178 813.783 C 1048.727 812.005 1049.221 810.208 1049.66 808.396 L 1049.66 808.396 Z  M 1047.267 816.621 C 1046.614 818.516 1045.898 820.387 1045.12 822.231 C 1045.898 820.387 1046.614 818.516 1047.267 816.621 Z  M 1044.108 824.572 C 1043.223 826.517 1042.268 828.429 1041.246 830.301 C 1042.268 828.429 1043.223 826.517 1044.108 824.572 Z  M 1040.206 832.182 C 1039.081 834.133 1037.883 836.038 1036.615 837.892 C 1037.883 836.038 1039.081 834.133 1040.206 832.182 Z  M 1035.596 839.368 C 1034.222 841.294 1032.772 843.161 1031.25 844.964 C 1032.772 843.161 1034.222 841.294 1035.596 839.368 L 1035.596 839.368 Z  M 1030.332 846.048 C 1028.705 847.914 1027.001 849.707 1025.225 851.421 C 1027.001 849.707 1028.705 847.914 1030.332 846.048 L 1030.332 846.048 Z  M 1024.453 852.168 C 1022.583 853.929 1020.638 855.603 1018.624 857.184 C 1020.638 855.603 1022.583 853.929 1024.453 852.168 L 1024.453 852.168 Z  M 1017.997 857.679 C 1015.904 859.291 1013.74 860.803 1011.512 862.209 C 1013.74 860.803 1015.904 859.291 1017.997 857.679 L 1017.997 857.679 Z  M 1011.035 862.512 C 1008.74 863.939 1006.381 865.253 1003.966 866.449 C 1006.381 865.253 1008.74 863.939 1011.035 862.512 L 1011.035 862.512 Z  M 1003.632 866.616 C 1001.154 867.829 998.622 868.917 996.043 869.876 C 998.622 868.917 1001.154 867.829 1003.632 866.616 Z  M 995.871 869.942 C 993.242 870.913 990.568 871.749 987.86 872.447 C 990.568 871.749 993.242 870.913 995.871 869.942 L 995.871 869.942 Z " fill="rgb(239,73,76)"/><path d=" M 979.475 700.29 C 972.017 726.673 968.073 756.669 968.044 787.227 C 968.08 817.78 972.029 847.769 979.491 874.143 C 1021.197 867.918 1052.173 830.904 1052.225 787.228 C 1052.183 743.538 1021.196 706.508 979.475 700.29 L 979.475 700.29 Z " fill="rgb(101,178,255)"/><path d=" M 879.794 715.546 C 879.794 715.546 891.245 675.983 896.016 666.752 C 910.011 656.861 946.589 663.785 950.724 664.774 C 954.223 672.686 959.576 699.481 959.576 699.481 C 956.276 714.597 903.968 719.173 879.794 715.546 L 879.794 715.546 Z " fill-rule="evenodd" fill="rgb(251,232,170)"/><path d=" M 920.564 661.497 C 911.114 661.49 901.701 662.733 896.016 666.751 C 895.993 666.791 895.973 666.841 895.953 666.882 C 900.714 669.94 911.074 671.902 922.486 671.907 C 936.05 671.903 947.823 669.147 950.921 665.252 C 950.855 665.091 950.789 664.92 950.723 664.773 C 948.268 664.186 934.376 661.507 920.563 661.497 L 920.564 661.497 Z " fill="rgb(255,179,120)"/><path d=" M 870.978 781.845 C 870.978 761.829 886.655 745.579 905.966 745.579 C 925.276 745.579 940.954 761.829 940.954 781.845 C 940.954 801.861 925.276 818.111 905.966 818.111 C 886.655 818.111 870.978 801.861 870.978 781.845 Z " fill="rgb(239,73,76)"/><path d=" M 879.247 781.845 C 879.247 766.56 891.219 754.151 905.966 754.151 C 920.712 754.151 932.684 766.56 932.684 781.845 C 932.684 797.13 920.712 809.539 905.966 809.539 C 891.219 809.539 879.247 797.13 879.247 781.845 Z " fill="rgb(101,178,255)"/><path d=" M 926.116 763.712 C 927.92 767.507 928.861 771.68 928.867 775.91 C 928.867 791.205 916.904 803.604 902.149 803.604 C 894.412 803.591 887.061 800.103 881.996 794.042 C 886.482 803.521 895.779 809.532 905.965 809.539 C 920.721 809.539 932.683 797.14 932.683 781.845 C 932.671 775.178 930.339 768.74 926.116 763.712 L 926.116 763.712 Z " fill="rgb(145,221,255)"/><path d=" M 982.02 704.246 C 965.808 771.19 981.316 821.452 993.168 828.975 C 1041.872 822.421 1049.31 822.332 1049.363 778.656 C 1040.096 737.274 1025.013 714.091 982.02 704.246 L 982.02 704.246 Z " fill="rgb(145,221,255)"/><path d=" M 990.984 709.975 C 984.462 713.006 984.304 725.471 984.304 725.471 C 992.574 726.79 1012.488 726.75 1039.206 762.027 C 1039.206 762.027 1024.382 724.482 990.984 709.975 L 990.984 709.975 Z " fill-rule="evenodd" fill="rgb(255,255,255)"/><path d=" M 886.626 772.823 C 886.626 769.928 888.894 767.578 891.687 767.578 C 894.48 767.578 896.747 769.928 896.747 772.823 C 896.747 775.718 894.48 778.069 891.687 778.069 C 888.894 778.069 886.626 775.718 886.626 772.823 Z " fill="rgb(203,227,231)"/><path d=" M 899.671 767.578 C 899.671 765.262 901.485 763.382 903.719 763.382 C 905.954 763.382 907.768 765.262 907.768 767.578 C 907.768 769.894 905.954 771.774 903.719 771.774 C 901.485 771.774 899.671 769.894 899.671 767.578 Z " fill="rgb(203,227,231)"/><path d=" M 979.168 848.012 C 979.168 842.672 983.351 838.337 988.502 838.337 C 993.654 838.337 997.836 842.672 997.836 848.012 C 997.836 853.352 993.654 857.687 988.502 857.687 C 983.351 857.687 979.168 853.352 979.168 848.012 Z " fill="rgb(203,227,231)"/><path d=" M 1006.703 836.032 C 1006.703 832.687 1009.324 829.971 1012.551 829.971 C 1015.778 829.971 1018.399 832.687 1018.399 836.032 C 1018.399 839.377 1015.778 842.093 1012.551 842.093 C 1009.324 842.093 1006.703 839.377 1006.703 836.032 Z " fill="rgb(203,227,231)"/><path d=" M 905.965 747.413 C 904.693 747.413 903.661 748.482 903.661 749.802 C 903.66 750.435 903.903 751.043 904.335 751.491 C 904.767 751.94 905.354 752.192 905.965 752.192 C 906.577 752.192 907.163 751.94 907.595 751.491 C 908.028 751.043 908.27 750.435 908.27 749.802 C 908.27 748.482 907.238 747.413 905.965 747.413 L 905.965 747.413 Z  M 884.14 756.798 C 883.517 756.789 882.916 757.041 882.475 757.498 C 882.043 757.946 881.8 758.554 881.8 759.187 C 881.8 759.821 882.043 760.429 882.475 760.877 C 882.907 761.325 883.494 761.577 884.105 761.577 C 884.717 761.577 885.303 761.325 885.735 760.877 C 886.168 760.429 886.411 759.821 886.411 759.187 C 886.411 758.554 886.168 757.946 885.735 757.498 C 885.312 757.059 884.739 756.808 884.14 756.798 Z  M 927.859 756.798 C 927.236 756.789 926.636 757.041 926.195 757.498 C 925.763 757.946 925.52 758.554 925.52 759.187 C 925.52 759.821 925.763 760.429 926.195 760.877 C 926.628 761.325 927.214 761.577 927.825 761.577 C 928.437 761.577 929.023 761.325 929.455 760.877 C 929.888 760.429 930.131 759.821 930.131 759.187 C 930.131 758.554 929.888 757.946 929.455 757.498 C 929.031 757.058 928.459 756.807 927.859 756.798 Z  M 875.051 779.456 C 873.778 779.455 872.746 780.525 872.746 781.845 C 872.745 782.479 872.988 783.087 873.421 783.535 C 873.853 783.983 874.44 784.235 875.051 784.235 C 875.663 784.235 876.249 783.983 876.681 783.535 C 877.114 783.086 877.356 782.478 877.356 781.845 C 877.356 780.525 876.324 779.456 875.051 779.456 L 875.051 779.456 Z  M 936.879 779.456 C 935.607 779.456 934.575 780.525 934.575 781.845 C 934.574 782.478 934.817 783.086 935.249 783.535 C 935.681 783.983 936.268 784.235 936.879 784.235 C 937.491 784.235 938.077 783.983 938.509 783.535 C 938.942 783.086 939.184 782.478 939.184 781.845 C 939.184 780.525 938.152 779.456 936.879 779.456 L 936.879 779.456 Z  M 884.14 802.114 C 883.517 802.104 882.916 802.357 882.475 802.813 C 882.043 803.262 881.8 803.869 881.8 804.503 C 881.8 805.137 882.043 805.745 882.475 806.193 C 882.907 806.641 883.494 806.893 884.105 806.893 C 884.717 806.893 885.303 806.641 885.735 806.193 C 886.168 805.745 886.411 805.137 886.411 804.503 C 886.411 803.869 886.168 803.262 885.735 802.813 C 885.312 802.374 884.739 802.124 884.14 802.114 Z  M 927.859 802.114 C 927.236 802.105 926.636 802.357 926.195 802.813 C 925.763 803.262 925.52 803.869 925.52 804.503 C 925.52 805.137 925.763 805.745 926.195 806.193 C 926.628 806.641 927.214 806.893 927.825 806.893 C 928.437 806.893 929.023 806.641 929.455 806.193 C 929.888 805.745 930.131 805.137 930.131 804.503 C 930.131 803.869 929.888 803.262 929.455 802.813 C 929.031 802.374 928.459 802.123 927.859 802.114 Z  M 905.965 811.499 C 904.693 811.499 903.661 812.569 903.661 813.888 C 903.66 814.522 903.903 815.129 904.335 815.578 C 904.767 816.026 905.354 816.278 905.965 816.278 C 906.577 816.278 907.163 816.026 907.595 815.578 C 908.028 815.129 908.27 814.522 908.27 813.888 C 908.27 812.569 907.238 811.499 905.965 811.499 L 905.965 811.499 Z " fill="rgb(203,227,231)"/><path d=" M 957.64 690.333 C 947.908 701.832 906.578 705.598 883.486 703.149 C 881.33 710.251 879.794 715.546 879.794 715.546 C 903.968 719.172 956.276 714.597 959.576 699.481 C 959.576 699.481 958.794 695.581 957.64 690.333 L 957.64 690.333 Z " fill-rule="evenodd" fill="rgb(239,73,76)"/><path d=" M 1051.818 778.791 C 1051.801 778.92 1051.783 779.05 1051.765 779.179 C 1051.839 780.005 1051.902 780.832 1051.953 781.66 C 1051.953 781.664 1051.953 781.667 1051.953 781.671 C 1052.1 783.52 1052.191 785.374 1052.225 787.229 C 1052.22 784.412 1052.084 781.596 1051.818 778.792 L 1051.818 778.791 Z  M 817.407 779.469 C 816.967 782.049 816.721 784.64 816.671 787.233 C 816.704 835.483 882.949 874.704 965.113 875.118 L 965.113 875.031 C 965.799 875.076 966.486 875.111 967.173 875.138 C 965.678 869.822 964.322 864.344 963.109 858.73 C 887.395 857.749 824.849 823.725 817.407 779.468 L 817.407 779.469 Z  M 1052.106 790.713 C 1052.024 792.526 1051.887 794.337 1051.697 796.141 C 1051.887 794.337 1052.024 792.526 1052.106 790.713 L 1052.106 790.713 Z  M 1051.251 799.956 C 1051.006 801.657 1050.713 803.351 1050.372 805.035 C 1050.713 803.351 1051.006 801.657 1051.251 799.956 L 1051.251 799.956 Z  M 1049.641 808.408 C 1049.204 810.208 1048.713 811.993 1048.168 813.76 C 1048.713 811.993 1049.204 810.208 1049.641 808.408 L 1049.641 808.408 Z  M 1047.251 816.622 C 1046.793 817.904 1046.306 819.174 1045.792 820.433 C 1045.571 821.03 1045.343 821.624 1045.11 822.216 C 1045.884 820.377 1046.599 818.512 1047.251 816.622 L 1047.251 816.622 Z  M 1044.092 824.573 C 1043.206 826.519 1042.251 828.43 1041.229 830.303 C 1042.251 828.43 1043.206 826.519 1044.092 824.573 L 1044.092 824.573 Z  M 1040.183 832.192 C 1039.065 834.13 1037.875 836.023 1036.616 837.866 C 1037.875 836.023 1039.065 834.13 1040.183 832.192 L 1040.183 832.192 Z  M 1035.572 839.38 C 1035.53 839.434 1035.487 839.489 1035.444 839.543 C 1034.114 841.401 1032.715 843.205 1031.247 844.948 C 1032.761 843.154 1034.204 841.296 1035.572 839.38 L 1035.572 839.38 Z  M 1030.297 846.07 C 1028.681 847.922 1026.989 849.702 1025.226 851.404 C 1026.989 849.702 1028.681 847.922 1030.297 846.07 L 1030.297 846.07 Z  M 1025.192 851.437 C 1023.391 853.157 1021.519 854.795 1019.582 856.347 C 1019.264 856.625 1018.944 856.9 1018.623 857.173 C 1020.904 855.377 1023.097 853.462 1025.192 851.437 Z  M 1017.967 857.69 C 1015.891 859.288 1013.746 860.787 1011.538 862.181 C 1013.746 860.787 1015.891 859.288 1017.967 857.69 Z  M 1011.453 862.237 C 1010.79 862.629 1010.122 863.013 1009.45 863.387 C 1007.661 864.472 1005.835 865.489 1003.974 866.436 C 1006.533 865.167 1009.029 863.765 1011.453 862.237 L 1011.453 862.237 Z  M 1003.595 866.627 C 1001.127 867.834 998.605 868.918 996.036 869.873 C 998.605 868.918 1001.127 867.834 1003.595 866.627 L 1003.595 866.627 Z  M 995.842 869.947 C 993.222 870.914 990.557 871.747 987.858 872.443 C 990.557 871.747 993.222 870.914 995.842 869.947 L 995.842 869.947 Z  M 987.808 872.457 C 985.069 873.161 982.299 873.723 979.506 874.141 C 982.299 873.723 985.069 873.161 987.808 872.457 Z  M 979.459 874.148 C 975.515 874.769 971.534 875.102 967.545 875.142 C 971.534 875.102 975.515 874.769 979.459 874.148 L 979.459 874.148 Z " fill="rgb(144,108,255)"/><path d=" M 954.141 722.096 C 880.803 717.601 848.114 741.421 848.114 741.421 C 896.418 729.495 922.114 727.106 953.806 732.781 C 955.127 727.738 954.141 722.096 954.141 722.096 L 954.141 722.096 Z " fill-rule="evenodd" fill="rgb(251,232,170)"/><path d=" M 922.217 668.013 L 930.708 668.013 C 930.595 663.7 929.808 650.82 938.13 649.887 L 938.13 634.093 C 916.537 632.647 922.217 668.013 922.217 668.013 Z " fill-rule="evenodd" fill="rgb(144,108,255)"/><path d=" M 936.255 635.627 L 936.333 638.182 C 920.388 637.47 923.451 668.431 923.451 668.431 C 923.451 668.431 917.907 637.104 936.255 635.627 L 936.255 635.627 Z " fill-rule="evenodd" fill="rgb(201,145,225)"/><path d=" M 940.61 632 C 938.966 632 937.388 633.059 936.225 634.945 C 935.061 636.831 934.408 639.389 934.408 642.056 C 934.408 644.723 935.061 647.28 936.225 649.166 C 937.388 651.052 938.965 652.111 940.61 652.111 L 943.816 652.111 L 943.816 650.655 C 945.674 648.836 946.811 645.575 946.813 642.056 C 946.81 638.538 945.673 635.279 943.816 633.462 L 943.816 632 L 940.61 632 L 940.61 632 Z " fill="rgb(255,179,120)"/><path d=" M 937.613 642.056 C 937.613 636.506 940.393 632.001 943.816 632.001 C 947.239 632.001 950.018 636.506 950.018 642.056 C 950.018 647.606 947.239 652.112 943.816 652.112 C 940.393 652.112 937.613 647.606 937.613 642.056 Z " fill="rgb(239,73,76)"/><path d=" M 939.919 642.056 C 939.919 638.57 941.665 635.739 943.816 635.739 C 945.966 635.739 947.712 638.57 947.712 642.056 C 947.712 645.543 945.966 648.373 943.816 648.373 C 941.665 648.373 939.919 645.543 939.919 642.056 Z " fill="rgb(170,255,228)"/><path d=" M 745.252 783.472 C 745.252 776.193 750.953 770.284 757.975 770.284 C 764.997 770.284 770.698 776.193 770.698 783.472 C 770.698 790.75 764.997 796.659 757.975 796.659 C 750.953 796.659 745.252 790.75 745.252 783.472 Z " fill="rgb(86,85,117)"/><path d=" M 755.589 779.021 C 755.589 776.019 757.941 773.581 760.837 773.581 C 763.734 773.581 766.086 776.019 766.086 779.021 C 766.086 782.023 763.734 784.461 760.837 784.461 C 757.941 784.461 755.589 782.023 755.589 779.021 Z " fill="rgb(203,227,231)"/><path d=" M 954.838 678.362 C 942.491 687.245 909.549 690.474 887.895 689.022 C 886.83 692.341 885.782 695.685 884.812 698.835 C 907.518 700.947 946.019 697.362 956.836 686.756 C 956.221 684.046 955.54 681.164 954.838 678.362 Z " fill-rule="evenodd" fill="rgb(144,108,255)"/><path d=" M 890.725 709.556 C 890.725 707.55 892.295 705.922 894.23 705.922 C 896.165 705.922 897.736 707.55 897.736 709.556 C 897.736 711.561 896.165 713.19 894.23 713.19 C 892.295 713.19 890.725 711.561 890.725 709.556 Z " fill="rgb(99,242,241)"/></g></svg>