<?xml version="1.0" encoding="UTF-8" standalone="no"?>
<!-- Created with Inkscape (http://www.inkscape.org/) -->

<svg
   xmlns:dc="http://purl.org/dc/elements/1.1/"
   xmlns:cc="http://creativecommons.org/ns#"
   xmlns:rdf="http://www.w3.org/1999/02/22-rdf-syntax-ns#"
   xmlns:svg="http://www.w3.org/2000/svg"
   xmlns="http://www.w3.org/2000/svg"
   xmlns:sodipodi="http://sodipodi.sourceforge.net/DTD/sodipodi-0.dtd"
   xmlns:inkscape="http://www.inkscape.org/namespaces/inkscape"
   width="100mm"
   height="100mm"
   viewBox="0 0 100 100"
   version="1.1"
   id="svg736"
   inkscape:version="0.92.2 (5c3e80d, 2017-08-06)"
   sodipodi:docname="bubble.svg">
  <defs
     id="defs730" />
  <sodipodi:namedview
     id="base"
     pagecolor="#ffffff"
     bordercolor="#666666"
     borderopacity="1.0"
     inkscape:pageopacity="0.0"
     inkscape:pageshadow="2"
     inkscape:zoom="0.35"
     inkscape:cx="400"
     inkscape:cy="560"
     inkscape:document-units="mm"
     inkscape:current-layer="layer1"
     showgrid="false"
     inkscape:window-width="1680"
     inkscape:window-height="1002"
     inkscape:window-x="0"
     inkscape:window-y="22"
     inkscape:window-maximized="0" />
  <metadata
     id="metadata733">
    <rdf:RDF>
      <cc:Work
         rdf:about="">
        <dc:format>image/svg+xml</dc:format>
        <dc:type
           rdf:resource="http://purl.org/dc/dcmitype/StillImage" />
        <dc:title></dc:title>
      </cc:Work>
    </rdf:RDF>
  </metadata>
  <g
     inkscape:label="Layer 1"
     inkscape:groupmode="layer"
     id="layer1"
     transform="translate(0,-197)">
    <path
       inkscape:connector-curvature="0"
       id="path5648-7"
       d="m 14.530215,211.62578 a 50.026241,50.011478 0 0 0 -13.9254356,27.0928 50.026241,50.011478 0 0 0 -0.28079339,2.05623 21.378421,34.962627 45.018553 0 0 0.0702,0 50.026241,50.011478 0 0 0 14.20622899,41.5773 50.026241,50.011478 0 0 0 70.747528,0 50.026241,50.011478 0 0 0 0,-70.72633 50.026241,50.011478 0 0 0 -50.311108,-12.33739 50.026241,50.011478 0 0 0 -4.491349,1.6492 50.026241,50.011478 0 0 0 -0.210598,0.0701 50.026241,50.011478 0 0 0 -3.803396,1.85622 50.026241,50.011478 0 0 0 -0.758155,0.36143 50.026241,50.011478 0 0 0 -3.15195,1.94044 50.026241,50.011478 0 0 0 -1.144248,0.72985 50.026241,50.011478 0 0 0 -2.643,2.02114 50.026241,50.011478 0 0 0 -1.368885,1.07374 50.026241,50.011478 0 0 0 -2.846582,2.60712 z m -7.8230106,28.90867 a 21.378421,34.962627 45.018553 0 0 24.2415746,-13.47463 21.378421,34.962627 45.018553 0 0 13.329792,-23.36772 43.726636,43.713732 0 0 1 36.545028,12.38617 43.726636,43.713732 0 0 1 0,61.82171 43.726636,43.713732 0 0 1 -61.839239,0 43.726636,43.713732 0 0 1 -12.2771556,-37.36553 z"
       style="opacity:1;fill:#aaffe4;fill-opacity:1;stroke:none;stroke-width:28.02548027" />
  </g>
</svg>
