<?xml version="1.0" standalone="no"?><!-- Generator: Gravit.io --><svg xmlns="http://www.w3.org/2000/svg" xmlns:xlink="http://www.w3.org/1999/xlink" style="isolation:isolate" viewBox="0 0 264.431 259.511" width="264.431" height="259.511"><defs><clipPath id="_clipPath_9g09JVXKrabbpS8J5LB7tuCQIFrrZsIm"><rect width="264.431" height="259.511"/></clipPath></defs><g clip-path="url(#_clipPath_9g09JVXKrabbpS8J5LB7tuCQIFrrZsIm)"><path d=" M 95.267 90.716 C 91.482 56.316 110.987 3.245 144.251 0.104 C 186.18 -3.856 224.888 107.222 224.888 107.222 C 224.888 107.222 180.149 -1.902 145.309 5.31 C 103.133 14.041 98.273 84.671 98.273 84.671 C 98.273 84.671 95.69 94.562 95.267 90.716 L 95.267 90.716 Z " fill-rule="evenodd" fill="rgb(86,85,117)"/><path d=" M 82.982 78.025 C 81.513 78.054 80.046 78.096 78.581 78.152 C 33.732 94.399 11.327 124.188 21.477 154.074 C 19.789 153.251 18.28 152.307 17.268 151.254 C 9.631 143.306 19.501 119.684 5.211 120.009 C -2.483 120.183 -0.361 203.136 3.326 203.59 C 13.167 204.803 6.439 186.855 12.558 182.401 C 14.353 181.094 16.075 179.619 17.706 178.059 C 17.479 179.556 17.333 181.059 17.266 182.564 C 15.994 188.534 15.26 194.682 15.08 200.873 C 18.736 223.281 29.673 242.091 44.829 252.038 C 59.986 261.986 77.736 262.003 93.111 252.086 C 116.109 259.311 140.167 245.998 153.189 218.839 C 164.022 204.25 170.323 184.259 170.693 163.3 L 155.785 168.143 C 173.228 133.017 142.604 95.109 82.982 78.025 L 82.982 78.025 Z " fill="rgb(144,108,255)"/><path d=" M 159.916 169.22 L 170.251 168.55 C 168.744 146.009 153.671 130.386 153.671 130.386 C 153.671 130.386 161.423 149.134 159.916 169.22 Z " fill-rule="evenodd" fill="rgb(203,227,231)"/><path d=" M 85.337 167.315 C 93.463 173.252 119.603 158.363 120.136 152.426 C 116.939 137.926 105.213 125.137 101.749 122.79 C 88.693 118.509 83.746 128.191 83.746 128.191 C 82.414 134.405 77.477 152.263 85.337 167.315 Z " fill-rule="evenodd" fill="rgb(201,145,225)"/><path d=" M 148.611 173.321 L 158.947 172.651 C 157.44 150.11 142.367 134.487 142.367 134.487 C 142.367 134.487 150.119 153.234 148.611 173.321 Z " fill-rule="evenodd" fill="rgb(203,227,231)"/><path d=" M 136.93 177.617 L 147.266 176.948 C 145.759 154.406 130.686 138.783 130.686 138.783 C 130.686 138.783 138.438 157.531 136.93 177.617 Z " fill-rule="evenodd" fill="rgb(203,227,231)"/><path d=" M 126.788 180.156 L 134.369 179.665 C 133.263 163.131 122.208 151.672 122.208 151.672 C 122.208 151.672 127.894 165.423 126.788 180.156 Z " fill-rule="evenodd" fill="rgb(203,227,231)"/><path d=" M 117.175 183.28 L 122.876 182.911 C 122.045 170.476 113.73 161.857 113.73 161.857 C 113.73 161.857 118.006 172.2 117.175 183.28 L 117.175 183.28 Z " fill-rule="evenodd" fill="rgb(203,227,231)"/><path d=" M 107.28 186.991 L 111.572 186.713 C 110.946 177.351 104.687 170.863 104.687 170.863 C 104.687 170.863 107.906 178.649 107.28 186.991 Z " fill-rule="evenodd" fill="rgb(203,227,231)"/><path d=" M 100.749 188.684 C 100.372 196.593 105.742 195.031 105.742 195.031 C 134.473 178.139 173.709 172.69 175.639 168.961 C 177.031 166.271 171.682 162.471 168.684 162.678 C 155.873 165.412 141.633 170.816 100.749 188.684 L 100.749 188.684 Z " fill-rule="evenodd" fill="rgb(86,85,117)"/><path d=" M 87.828 159.389 C 94.625 162.44 116.487 154.791 116.933 151.74 C 114.259 144.291 104.452 137.72 101.555 136.514 C 90.636 134.315 86.498 139.289 86.498 139.289 C 85.383 142.482 81.254 151.657 87.828 159.389 Z " fill-rule="evenodd" fill="rgb(43,41,66)"/><path d=" M 19.486 157.478 C 18.154 156.925 7.496 144.221 7.763 129.584 L 6.164 139.25 C 7.23 148.088 19.486 157.478 19.486 157.478 L 19.486 157.478 Z " fill-rule="evenodd" fill="rgb(86,85,117)"/><path d=" M 22.004 161.548 C 20.571 161.471 6.531 153.008 2.229 139.064 L 3.723 148.748 C 7.481 156.757 22.004 161.548 22.004 161.548 Z " fill-rule="evenodd" fill="rgb(86,85,117)"/><path d=" M 21.492 166.439 C 20.445 166.789 8.588 162.834 2.608 150.743 L 5.686 159.582 C 10.048 166.145 21.492 166.439 21.492 166.439 Z " fill-rule="evenodd" fill="rgb(86,85,117)"/><path d=" M 23.869 169.642 C 22.993 170.333 10.543 170.69 1.023 161.35 L 6.763 168.624 C 12.982 173.31 23.869 169.642 23.869 169.642 Z " fill-rule="evenodd" fill="rgb(86,85,117)"/><path d=" M 144.567 230.592 C 138.636 230.449 80.518 214.918 62.711 189.327 L 68.896 207.1 C 84.453 221.799 144.567 230.592 144.567 230.592 Z " fill-rule="evenodd" fill="rgb(201,145,225)"/><path d=" M 26.577 154.261 C 28.573 148.47 61.074 96.17 90.111 86.697 L 71.89 87.193 C 53.536 97.878 26.577 154.261 26.577 154.261 Z " fill-rule="evenodd" fill="rgb(86,85,117)"/><path d=" M 57.009 146.532 C 35.189 157.234 22.805 184.613 22.805 184.613 L 23.537 190.418 C 23.537 190.418 26.416 182.863 32.808 174.173 C 30.713 201.595 49.41 222.834 49.41 222.834 L 53.174 223.112 C 53.174 223.112 32.589 202.97 37.906 167.938 C 38.792 166.965 39.723 165.999 40.698 165.044 C 37.058 193.786 57.021 216.463 57.021 216.463 L 60.785 216.741 C 60.785 216.741 39.836 196.245 45.661 160.645 C 46.625 159.876 47.623 159.125 48.655 158.401 C 45.143 184.922 63.453 206.173 63.453 206.173 L 66.828 206.462 C 66.828 206.462 48.18 187.776 52.911 155.685 C 54.221 154.929 55.58 154.217 56.988 153.555 C 54.014 176.533 69.859 194.924 69.859 194.924 L 72.791 195.175 C 72.791 195.175 56.964 179.317 60.566 152.029 C 62.425 151.317 64.362 150.699 66.377 150.188 L 65.79 150.48 C 61.885 170.612 76.11 187.118 76.11 187.118 L 78.545 187.326 C 78.545 187.326 64.688 173.442 68.671 149.656 C 69.977 149.386 71.317 149.167 72.686 148.992 C 70.797 163.412 80.747 174.96 80.747 174.96 L 82.584 175.118 C 82.584 175.118 72.927 165.444 74.838 148.76 C 75.591 148.694 76.349 148.638 77.12 148.602 L 73.585 142.327 C 67.581 142.48 62.044 144.062 57.009 146.532 L 57.009 146.532 Z " fill-rule="evenodd" fill="rgb(201,145,225)"/><path d=" M 33.505 168.07 C 35.5 162.278 68.002 109.979 97.039 100.506 L 78.817 101.002 C 60.463 111.687 33.505 168.07 33.505 168.07 Z " fill-rule="evenodd" fill="rgb(86,85,117)"/><path d=" M 106.733 246.057 C 100.801 245.915 42.683 230.384 24.876 204.793 L 31.061 222.566 C 46.619 237.264 106.733 246.057 106.733 246.057 Z " fill-rule="evenodd" fill="rgb(86,85,117)"/><path d=" M 122.986 238.877 C 117.054 238.735 58.936 223.204 41.129 197.613 L 47.314 215.385 C 62.872 230.084 122.986 238.877 122.986 238.877 Z " fill-rule="evenodd" fill="rgb(86,85,117)"/><path d=" M 71.905 148.91 C 71.905 148.91 86.257 193.326 104.969 199.88 C 125.552 207.088 165.755 178.826 166.691 178.17 C 173.662 173.288 116.251 229.512 105.44 224.29 C 94.629 219.069 87.354 214.721 70.021 148.129 L 71.905 148.91 Z " fill-rule="evenodd" fill="rgb(201,145,225)"/><path d=" M 144.567 230.592 C 138.636 230.449 80.518 214.918 62.711 189.327 L 68.896 207.1 C 84.453 221.799 144.567 230.592 144.567 230.592 Z " fill-rule="evenodd" fill="rgb(86,85,117)"/></g></svg>