<?xml version="1.0" encoding="UTF-8"?>
<svg width="793.7" height="1122.5" style="isolation:isolate" viewBox="0 0 793.701 1122.52" xmlns="http://www.w3.org/2000/svg">
<defs>
<clipPath id="a">
<rect width="793.7" height="1122.5"/>
</clipPath>
</defs>
<g clip-path="url(#a)">
<path d="m465.54 82.963c27.032 74.099-61.977 135.29-187.07 180.92-125.1 45.636-238.91 58.44-265.94-15.659s52.465-171.16 177.56-216.8 248.42-22.562 275.45 51.537z" fill="#95ffa4"/>
<path d="m73.232 267.2c-8.421-23.086 64.31-70.856 162.32-106.61 98.007-35.753 184.41-46.038 192.84-22.952s-64.309 70.857-162.32 106.61c-98.006 35.753-184.41 46.038-192.84 22.952z" fill="#62d196"/>
<path d="m205.22 258.4c-8.315-22.792 3.439-48.047 26.232-56.362 22.792-8.315 48.047 3.439 56.362 26.232 8.315 22.792-3.439 48.047-26.232 56.362-22.792 8.315-48.047-3.439-56.362-26.232z" fill="#62d196"/>
<path d="m227.6 305.88c-8.315-22.793 3.439-48.048 26.231-56.363 22.793-8.314 48.048 3.439 56.363 26.232 8.314 22.792-3.439 48.047-26.232 56.362-22.792 8.315-48.047-3.439-56.362-26.231z" fill="#62d196"/>
<path d="m233.75 364.34c-8.315-22.792 3.439-48.048 26.231-56.362 22.793-8.315 48.048 3.439 56.362 26.231 8.315 22.793-3.439 48.048-26.231 56.362-22.793 8.315-48.048-3.439-56.362-26.231z" fill="#62d196"/>
<path d="m241.5 399.45c-8.315-22.792 3.439-48.047 26.232-56.362 22.792-8.315 48.047 3.439 56.362 26.232 8.315 22.792-3.439 48.047-26.232 56.362-22.792 8.315-48.047-3.439-56.362-26.232z" fill="#62d196"/>
<path d="m287.62 435.74c-8.315-22.792 3.439-48.047 26.232-56.362 22.792-8.315 48.047 3.439 56.362 26.232 8.315 22.792-3.439 48.047-26.232 56.362-22.792 8.315-48.047-3.439-56.362-26.232z" fill="#62d196"/>
<path d="m306.74 474.3c-8.315-22.793 3.439-48.048 26.231-56.363 22.792-8.314 48.048 3.44 56.362 26.232 8.315 22.792-3.439 48.047-26.231 56.362-22.793 8.315-48.048-3.439-56.362-26.231z" fill="#62d196"/>
<path d="m327.7 524.82c-8.315-22.792 3.439-48.047 26.231-56.362 22.793-8.315 48.048 3.439 56.363 26.232 8.314 22.792-3.44 48.047-26.232 56.362s-48.047-3.439-56.362-26.232z" fill="#62d196"/>
<path d="m338.29 553.84c-8.315-22.793 3.439-48.048 26.232-56.362 22.792-8.315 48.047 3.439 56.362 26.231s-3.439 48.047-26.232 56.362c-22.792 8.315-48.047-3.439-56.362-26.231z" fill="#62d196"/>
<path d="m348.27 588.14c-8.315-22.792 3.439-48.047 26.232-56.362 22.792-8.315 48.047 3.439 56.362 26.231 8.315 22.793-3.439 48.048-26.232 56.363-22.792 8.314-48.047-3.44-56.362-26.232z" fill="#62d196"/>
<path d="m362.72 620.81c-8.315-22.793 3.439-48.048 26.231-56.362 22.792-8.315 48.047 3.439 56.362 26.231s-3.439 48.047-26.231 56.362c-22.793 8.315-48.048-3.439-56.362-26.231z" fill="#62d196"/>
<path d="m380 647.39c-8.315-22.792 3.439-48.047 26.231-56.362 22.793-8.315 48.048 3.439 56.363 26.231 8.314 22.793-3.44 48.048-26.232 56.363-22.792 8.314-48.047-3.44-56.362-26.232z" fill="#62d196"/>
<path d="m399.13 685.94c-8.314-22.792 3.44-48.047 26.232-56.362s48.047 3.439 56.362 26.231c8.315 22.793-3.439 48.048-26.231 56.363-22.793 8.314-48.048-3.439-56.363-26.232z" fill="#62d196"/>
<path d="m425.16 729.56c-8.315-22.792 3.439-48.047 26.231-56.362 22.793-8.315 48.048 3.439 56.363 26.232 8.314 22.792-3.44 48.047-26.232 56.362s-48.047-3.439-56.362-26.232z" fill="#62d196"/>
<path d="m455.23 756.53c-6.067-16.632 2.51-35.061 19.142-41.129 16.632-6.067 35.062 2.51 41.129 19.142 6.068 16.632-2.509 35.062-19.142 41.129-16.632 6.068-35.061-2.509-41.129-19.142z" fill="#62d196"/>
<path d="m465.24 818.64c-6.068-16.632 2.51-35.062 19.142-41.129 16.632-6.068 35.061 2.509 41.129 19.142 6.068 16.632-2.51 35.061-19.142 41.129-16.632 6.067-35.062-2.51-41.129-19.142z" fill="#62d196"/>
<path d="m477.64 831.82c-6.068-16.632 2.51-35.062 19.142-41.129 16.632-6.068 35.061 2.509 41.129 19.142 6.068 16.632-2.51 35.061-19.142 41.129-16.632 6.067-35.062-2.51-41.129-19.142z" fill="#62d196"/>
<path d="m479.87 831.01c-6.067-16.632 2.51-35.061 19.142-41.129 16.632-6.067 35.062 2.51 41.129 19.142 6.068 16.632-2.509 35.062-19.142 41.129-16.632 6.068-35.061-2.509-41.129-19.142z" fill="#62d196"/>
<path d="m511.78 869.95c-6.068-16.632 2.51-35.061 19.142-41.129 16.632-6.067 35.062 2.51 41.129 19.142 6.068 16.632-2.51 35.062-19.142 41.129-16.632 6.068-35.062-2.509-41.129-19.142z" fill="#62d196"/>
<path d="m528.46 901.81c-6.068-16.633 2.509-35.062 19.142-41.13 16.632-6.067 35.061 2.51 41.129 19.142 6.067 16.633-2.51 35.062-19.142 41.129-16.632 6.068-35.062-2.509-41.129-19.141z" fill="#62d196"/>
<path d="m552.05 938.73c-6.068-16.632 2.509-35.062 19.142-41.129 16.632-6.068 35.061 2.509 41.129 19.142 6.067 16.632-2.51 35.061-19.142 41.129-16.632 6.067-35.062-2.51-41.129-19.142z" fill="#62d196"/>
<path d="m559.38 958.82c-6.068-16.632 2.51-35.061 19.142-41.129 16.632-6.067 35.061 2.51 41.129 19.142s-2.51 35.062-19.142 41.129c-16.632 6.068-35.062-2.509-41.129-19.142z" fill="#62d196"/>
<path d="m571.38 984.79c-6.067-16.632 2.51-35.061 19.142-41.129 16.633-6.068 35.062 2.51 41.129 19.142 6.068 16.632-2.509 35.062-19.141 41.129-16.633 6.068-35.062-2.51-41.13-19.142z" fill="#62d196"/>
<path d="m577.48 987.63c-6.068-16.632 2.509-35.062 19.142-41.129 16.632-6.068 35.061 2.509 41.129 19.142 6.067 16.632-2.51 35.061-19.142 41.129-16.632 6.067-35.062-2.51-41.129-19.142z" fill="#62d196"/>
<path d="m457.28 776.01c-6.067-16.632 2.51-35.061 19.142-41.129 16.633-6.068 35.062 2.51 41.129 19.142 6.068 16.632-2.509 35.062-19.141 41.129-16.633 6.068-35.062-2.51-41.13-19.142z" fill="#62d196"/>
<path d="m605.73 1016.5c-2.697-7.392 1.115-15.583 8.507-18.28s15.583 1.115 18.28 8.507c2.697 7.393-1.115 15.583-8.508 18.28-7.392 2.697-15.583-1.115-18.279-8.507z" fill="#62d196"/>
<path d="m599.63 1013.7c-2.697-7.392 1.115-15.583 8.507-18.28 7.392-2.696 15.583 1.116 18.28 8.508 2.696 7.392-1.116 15.583-8.508 18.279-7.392 2.697-15.583-1.115-18.279-8.507z" fill="#62d196"/>
<path d="m635.59 1036c-2.697-7.392 1.116-15.583 8.508-18.28s15.583 1.116 18.279 8.508c2.697 7.392-1.115 15.583-8.507 18.279-7.392 2.697-15.583-1.115-18.28-8.507z" fill="#62d196"/>
<path d="m649.4 1046.1c-2.696-7.392 1.116-15.583 8.508-18.28 7.392-2.696 15.583 1.116 18.28 8.508 2.696 7.392-1.116 15.583-8.508 18.279-7.392 2.697-15.583-1.115-18.28-8.507z" fill="#62d196"/>
<path d="m649.4 1046.1c-2.696-7.392 1.116-15.583 8.508-18.28 7.392-2.696 15.583 1.116 18.28 8.508 2.696 7.392-1.116 15.583-8.508 18.279-7.392 2.697-15.583-1.115-18.28-8.507z" fill="#62d196"/>
<path d="m633.36 1036.8c-2.697-7.392 1.115-15.583 8.507-18.279 7.392-2.697 15.583 1.115 18.28 8.507s-1.115 15.583-8.508 18.28c-7.392 2.696-15.582-1.116-18.279-8.508z" fill="#62d196"/>
<path d="m616.07 1010.2c-2.697-7.392 1.115-15.583 8.507-18.28s15.583 1.115 18.28 8.508c2.697 7.392-1.116 15.582-8.508 18.279s-15.583-1.115-18.279-8.507z" fill="#62d196"/>
<path d="m602.65 987.3c-2.696-7.392 1.116-15.582 8.508-18.279s15.583 1.115 18.279 8.507c2.697 7.392-1.115 15.583-8.507 18.28s-15.583-1.115-18.28-8.508z" fill="#62d196"/>
<path d="m613.21 988.51c-2.696-7.393 1.116-15.583 8.508-18.28s15.583 1.115 18.279 8.507c2.697 7.393-1.115 15.583-8.507 18.28s-15.583-1.115-18.28-8.507z" fill="#62d196"/>
<path d="m636.37 1010.4c-2.697-7.392 1.115-15.583 8.507-18.28s15.583 1.115 18.28 8.508c2.697 7.392-1.115 15.582-8.508 18.279-7.392 2.697-15.582-1.115-18.279-8.507z" fill="#62d196"/>
<path d="m634.17 1039c-2.697-7.392 1.116-15.583 8.508-18.279 7.392-2.697 15.583 1.115 18.279 8.507 2.697 7.392-1.115 15.583-8.507 18.28s-15.583-1.116-18.28-8.508z" fill="#62d196"/>
<path d="m631.94 1039.8c-2.697-7.393 1.115-15.583 8.508-18.28 7.392-2.697 15.583 1.115 18.279 8.507 2.697 7.393-1.115 15.583-8.507 18.28s-15.583-1.115-18.28-8.507z" fill="#62d196"/>
<path d="m612.24 1034.4c-2.697-7.392 1.115-15.583 8.507-18.28s15.583 1.116 18.28 8.508c2.696 7.392-1.116 15.583-8.508 18.279-7.392 2.697-15.583-1.115-18.279-8.507z" fill="#62d196"/>
<path d="m618.94 1031.9c-2.697-7.392 1.116-15.583 8.508-18.28s15.583 1.116 18.279 8.508c2.697 7.392-1.115 15.583-8.507 18.279-7.392 2.697-15.583-1.115-18.28-8.507z" fill="#62d196"/>
<path d="m630.31 1035.4c-2.696-7.392 1.116-15.583 8.508-18.279 7.392-2.697 15.583 1.115 18.28 8.507 2.696 7.392-1.116 15.583-8.508 18.28-7.392 2.696-15.583-1.116-18.28-8.508z" fill="#62d196"/>
<path d="m658.96 1065.4c-2.697-7.392 1.115-15.583 8.507-18.28 7.392-2.696 15.583 1.116 18.28 8.508s-1.116 15.583-8.508 18.279c-7.392 2.697-15.583-1.115-18.279-8.507z" fill="#62d196"/>
<path d="m668.53 1084.7c-2.697-7.392 1.115-15.583 8.507-18.28 7.393-2.696 15.583 1.116 18.28 8.508s-1.115 15.583-8.507 18.28c-7.393 2.696-15.583-1.116-18.28-8.508z" fill="#62d196"/>
<path d="m666.29 1085.5c-2.697-7.392 1.115-15.583 8.507-18.279 7.392-2.697 15.583 1.115 18.28 8.507s-1.115 15.583-8.508 18.28c-7.392 2.697-15.582-1.116-18.279-8.508z" fill="#62d196"/>
<path d="m673.2 1090.6c-2.696-7.392 1.116-15.582 8.508-18.279s15.583 1.115 18.279 8.507c2.697 7.392-1.115 15.583-8.507 18.28s-15.583-1.115-18.28-8.508z" fill="#62d196"/>
<g fill="#62d196">
<path d="m341.75 204.12c-6.992-19.166 2.892-40.403 22.058-47.394 19.165-6.992 40.402 2.891 47.394 22.057s-2.892 40.402-22.058 47.394-40.402-2.892-47.394-22.057z"/>
<path d="m347.96 245.67c-7.151-19.602 2.957-41.321 22.559-48.472 19.601-7.15 41.32 2.958 48.471 22.559 7.151 19.602-2.958 41.321-22.559 48.472-19.601 7.15-41.321-2.958-48.471-22.559z"/>
<path d="m362.21 279.82c-7.15-19.602 2.958-41.321 22.559-48.472 19.602-7.15 41.321 2.958 48.472 22.559 7.15 19.602-2.958 41.321-22.559 48.472-19.602 7.15-41.321-2.958-48.472-22.559z"/>
<path d="m384.35 311.09c-7.15-19.602 2.958-41.321 22.559-48.472 19.602-7.15 41.321 2.958 48.472 22.559 7.15 19.602-2.958 41.321-22.559 48.471-19.602 7.151-41.321-2.957-48.472-22.558z"/>
<path d="m396.31 358.6c-7.151-19.601 2.958-41.32 22.559-48.471s41.32 2.957 48.471 22.559c7.151 19.601-2.957 41.32-22.559 48.471-19.601 7.151-41.32-2.958-48.471-22.559z"/>
<path d="m416.3 388.86c-7.151-19.601 2.957-41.32 22.559-48.471 19.601-7.151 41.32 2.958 48.471 22.559 7.15 19.601-2.958 41.321-22.559 48.471-19.602 7.151-41.321-2.957-48.471-22.559z"/>
<path d="m434.43 428.75c-7.151-19.601 2.958-41.32 22.559-48.471 19.601-7.15 41.32 2.958 48.471 22.559s-2.958 41.321-22.559 48.471c-19.601 7.151-41.32-2.957-48.471-22.559z"/>
<path d="m453.13 470.22c-7.15-19.602 2.958-41.321 22.559-48.471 19.602-7.151 41.321 2.957 48.471 22.559 7.151 19.601-2.957 41.32-22.559 48.471-19.601 7.15-41.32-2.958-48.471-22.559z"/>
<path d="m473.26 505.8c-4.926-13.503 2.037-28.465 15.54-33.391 13.504-4.926 28.466 2.037 33.392 15.541 4.926 13.503-2.038 28.465-15.541 33.391s-28.465-2.038-33.391-15.541z"/>
<path d="m493.97 542.96c-4.926-13.503 2.038-28.465 15.541-33.391s28.465 2.037 33.391 15.541c4.926 13.503-2.037 28.465-15.54 33.391s-28.466-2.038-33.392-15.541z"/>
<path d="m515.54 572.65c-4.926-13.503 2.038-28.466 15.541-33.392s28.465 2.038 33.391 15.541-2.037 28.465-15.54 33.391-28.466-2.037-33.392-15.54z"/>
<path d="m540.28 620.86c-4.926-13.503 2.037-28.466 15.54-33.392s28.466 2.038 33.392 15.541-2.038 28.465-15.541 33.391-28.465-2.037-33.391-15.54z"/>
<path d="m520.44 595.9c-4.926-13.504 2.038-28.466 15.541-33.392s28.465 2.038 33.391 15.541-2.037 28.465-15.541 33.391c-13.503 4.926-28.465-2.037-33.391-15.54z"/>
<path d="m554.8 645.96c-4.926-13.503 2.038-28.465 15.541-33.391s28.465 2.037 33.391 15.54-2.037 28.465-15.541 33.391c-13.503 4.926-28.465-2.037-33.391-15.54z"/>
<path d="m580.1 676.08c-4.926-13.503 2.038-28.465 15.541-33.391s28.465 2.037 33.391 15.54c4.926 13.504-2.038 28.466-15.541 33.392s-28.465-2.038-33.391-15.541z"/>
<path d="m597.48 689.41c-4.926-13.503 2.038-28.465 15.541-33.391s28.465 2.037 33.391 15.54c4.926 13.504-2.037 28.466-15.541 33.392-13.503 4.926-28.465-2.038-33.391-15.541z"/>
<path d="m670.02 736.28c-4.926-13.503 2.038-28.465 15.541-33.391s28.465 2.037 33.391 15.54-2.038 28.466-15.541 33.392-28.465-2.038-33.391-15.541z"/>
<path d="m624.76 695.56c-4.926-13.503 2.037-28.466 15.54-33.392 13.504-4.926 28.466 2.038 33.392 15.541s-2.038 28.465-15.541 33.391-28.465-2.037-33.391-15.54z"/>
<path d="m680.24 759.38c-4.926-13.503 2.037-28.465 15.54-33.392 13.504-4.926 28.466 2.038 33.392 15.541s-2.038 28.465-15.541 33.391-28.465-2.037-33.391-15.54z"/>
<path d="m680.24 759.38c-4.926-13.503 2.037-28.465 15.54-33.392 13.504-4.926 28.466 2.038 33.392 15.541s-2.038 28.465-15.541 33.391-28.465-2.037-33.391-15.54z"/>
<path d="m680.24 759.38c-4.926-13.503 2.037-28.465 15.54-33.392 13.504-4.926 28.466 2.038 33.392 15.541s-2.038 28.465-15.541 33.391-28.465-2.037-33.391-15.54z"/>
<path d="m680.24 759.38c-4.926-13.503 2.037-28.465 15.54-33.392 13.504-4.926 28.466 2.038 33.392 15.541s-2.038 28.465-15.541 33.391-28.465-2.037-33.391-15.54z"/>
<path d="m675.93 757.37c-4.926-13.504 2.038-28.466 15.541-33.392s28.465 2.038 33.391 15.541-2.037 28.465-15.54 33.391-28.466-2.037-33.392-15.54z"/>
<path d="m667.59 744.32c-4.926-13.503 2.038-28.465 15.541-33.391s28.465 2.037 33.391 15.541c4.926 13.503-2.037 28.465-15.541 33.391-13.503 4.926-28.465-2.038-33.391-15.541z"/>
<path d="m662.13 739.16c-4.926-13.503 2.037-28.465 15.54-33.391 13.504-4.926 28.466 2.037 33.392 15.54 4.926 13.504-2.038 28.466-15.541 33.392s-28.465-2.038-33.391-15.541z"/>
<path d="m655.67 736.15c-4.926-13.503 2.037-28.465 15.54-33.391 13.504-4.926 28.466 2.037 33.392 15.54 4.926 13.504-2.038 28.466-15.541 33.392s-28.465-2.038-33.391-15.541z"/>
<path d="m648.48 726.25c-4.926-13.503 2.038-28.466 15.541-33.392s28.465 2.038 33.391 15.541-2.037 28.465-15.54 33.391c-13.504 4.926-28.466-2.037-33.392-15.54z"/>
<path d="m645.75 723.67c-4.926-13.504 2.038-28.466 15.541-33.392s28.465 2.038 33.391 15.541-2.037 28.465-15.54 33.391c-13.504 4.926-28.466-2.037-33.392-15.54z"/>
<path d="m645.17 722.09c-4.926-13.503 2.038-28.465 15.541-33.391s28.465 2.037 33.391 15.54c4.926 13.504-2.037 28.466-15.54 33.392s-28.466-2.038-33.392-15.541z"/>
<path d="m664.13 734.85c-4.926-13.503 2.038-28.465 15.541-33.391s28.465 2.038 33.391 15.541-2.037 28.465-15.541 33.391c-13.503 4.926-28.465-2.037-33.391-15.541z"/>
<path d="m686.98 753.34c-4.926-13.503 2.037-28.465 15.54-33.392 13.503-4.926 28.466 2.038 33.392 15.541s-2.038 28.465-15.541 33.391-28.465-2.037-33.391-15.54z"/>
<path d="m724.23 765.89c-2.696-7.392 1.116-15.582 8.508-18.279s15.583 1.115 18.28 8.507c2.696 7.392-1.116 15.583-8.508 18.28s-15.583-1.115-18.28-8.508z"/>
<path d="m733.37 770.15c-2.697-7.392 1.115-15.583 8.508-18.279 7.392-2.697 15.583 1.115 18.279 8.507 2.697 7.392-1.115 15.583-8.507 18.28-7.392 2.696-15.583-1.116-18.28-8.508z"/>
<path d="m746.37 778.05c-2.697-7.392 1.115-15.583 8.508-18.279 7.392-2.697 15.582 1.115 18.279 8.507s-1.115 15.583-8.507 18.28c-7.392 2.696-15.583-1.116-18.28-8.508z"/>
<path d="m758.79 819.04c-2.697-7.392 1.115-15.583 8.507-18.279 7.393-2.697 15.583 1.115 18.28 8.507s-1.115 15.583-8.507 18.28c-7.393 2.697-15.583-1.116-18.28-8.508z"/>
<path d="m756.98 834.88c-2.697-7.392 1.115-15.583 8.508-18.28 7.392-2.696 15.583 1.116 18.279 8.508 2.697 7.392-1.115 15.583-8.507 18.279-7.392 2.697-15.583-1.115-18.28-8.507z"/>
<path d="m752.91 823.72c-2.696-7.392 1.116-15.583 8.508-18.28s15.583 1.115 18.28 8.508c2.696 7.392-1.116 15.583-8.508 18.279-7.392 2.697-15.583-1.115-18.28-8.507z"/>
<path d="m748.63 805.05c-2.697-7.392 1.115-15.583 8.507-18.279 7.393-2.697 15.583 1.115 18.28 8.507s-1.115 15.583-8.507 18.28c-7.393 2.696-15.583-1.116-18.28-8.508z"/>
<path d="m744.95 781.1c-2.697-7.392 1.115-15.583 8.508-18.28 7.392-2.696 15.583 1.116 18.279 8.508 2.697 7.392-1.115 15.583-8.507 18.279-7.392 2.697-15.583-1.115-18.28-8.507z"/>
</g>
<g fill="#62d196">
<path d="m150.39 245.21c-5.484-15.032-22.14-22.784-37.172-17.3s-22.784 22.14-17.3 37.172c5.483 15.032 22.139 22.784 37.171 17.3s22.784-22.14 17.301-37.172z"/>
<path d="m167.65 273.28c-5.608-15.374-22.643-23.302-38.016-17.694-15.374 5.609-23.302 22.644-17.694 38.017 5.609 15.374 22.643 23.302 38.017 17.694 15.374-5.609 23.302-22.644 17.693-38.017z"/>
<path d="m176.34 300.97c-5.608-15.374-22.643-23.302-38.016-17.694-15.374 5.609-23.302 22.643-17.694 38.017 5.609 15.374 22.643 23.302 38.017 17.693 15.374-5.608 23.302-22.643 17.693-38.016z"/>
<path d="m178.85 330.91c-5.608-15.373-22.643-23.301-38.017-17.693-15.373 5.608-23.301 22.643-17.693 38.017 5.608 15.373 22.643 23.302 38.017 17.693 15.373-5.608 23.302-22.643 17.693-38.017z"/>
<path d="m195.66 365.46c-5.609-15.374-22.644-23.302-38.017-17.694-15.374 5.609-23.302 22.643-17.694 38.017 5.609 15.374 22.644 23.302 38.017 17.693 15.374-5.608 23.302-22.643 17.694-38.016z"/>
<path d="m198.96 393.72c-5.609-15.374-22.643-23.302-38.017-17.694-15.374 5.609-23.302 22.644-17.693 38.017 5.608 15.374 22.643 23.302 38.016 17.694 15.374-5.609 23.302-22.644 17.694-38.017z"/>
<path d="m208.22 426.81c-5.608-15.374-22.643-23.302-38.016-17.693-15.374 5.608-23.302 22.643-17.694 38.017 5.609 15.373 22.643 23.301 38.017 17.693 15.374-5.609 23.302-22.643 17.693-38.017z"/>
<path d="m217.94 461.14c-5.608-15.373-22.643-23.301-38.017-17.693-15.373 5.608-23.301 22.643-17.693 38.017 5.608 15.373 22.643 23.302 38.017 17.693 15.373-5.608 23.302-22.643 17.693-38.017z"/>
<path d="m223.83 492.66c-3.863-10.591-15.598-16.052-26.189-12.189-10.591 3.864-16.052 15.599-12.189 26.19 3.864 10.59 15.599 16.052 26.19 12.188 10.59-3.863 16.052-15.598 12.188-26.189z"/>
<path d="m230.17 525.41c-3.863-10.591-15.598-16.053-26.189-12.189-10.591 3.863-16.052 15.598-12.189 26.189 3.864 10.591 15.599 16.053 26.189 12.189 10.591-3.864 16.053-15.599 12.189-26.189z"/>
<path d="m232.22 554.12c-3.863-10.59-15.598-16.052-26.189-12.188-10.591 3.863-16.052 15.598-12.189 26.189 3.864 10.591 15.599 16.052 26.19 12.189 10.59-3.864 16.052-15.599 12.188-26.19z"/>
<path d="m241.73 595.54c-3.864-10.591-15.599-16.052-26.19-12.189-10.59 3.864-16.052 15.599-12.188 26.19 3.863 10.59 15.598 16.052 26.189 12.188 10.591-3.863 16.052-15.598 12.189-26.189z"/>
<path d="m241.02 570.55c-3.863-10.591-15.598-16.052-26.189-12.189-10.591 3.864-16.052 15.599-12.189 26.19 3.864 10.59 15.599 16.052 26.189 12.189 10.591-3.864 16.053-15.599 12.189-26.19z"/>
<path d="m245.69 617.94c-3.863-10.591-15.598-16.052-26.189-12.189-10.591 3.864-16.052 15.599-12.189 26.19 3.864 10.59 15.599 16.052 26.189 12.188 10.591-3.863 16.053-15.598 12.189-26.189z"/>
<path d="m245.72 648.79c-3.863-10.591-15.599-16.052-26.189-12.189-10.591 3.864-16.053 15.599-12.189 26.19 3.864 10.59 15.599 16.052 26.189 12.188 10.591-3.863 16.053-15.598 12.189-26.189z"/>
<path d="m242.02 665.57c-3.863-10.59-15.599-16.052-26.189-12.188-10.591 3.863-16.053 15.598-12.189 26.189s15.599 16.052 26.189 12.189c10.591-3.864 16.053-15.599 12.189-26.19z"/>
<path d="m222.16 730.33c-3.864-10.591-15.599-16.052-26.189-12.189-10.591 3.864-16.053 15.599-12.189 26.19 3.863 10.59 15.598 16.052 26.189 12.189 10.591-3.864 16.052-15.599 12.189-26.19z"/>
<path d="m228.76 683.04c-3.864-10.59-15.599-16.052-26.19-12.188-10.59 3.863-16.052 15.598-12.188 26.189 3.863 10.591 15.598 16.052 26.189 12.189 10.591-3.864 16.052-15.599 12.189-26.19z"/>
<path d="m227.7 749.35c-3.863-10.591-15.598-16.053-26.189-12.189s-16.052 15.599-12.189 26.189c3.864 10.591 15.599 16.053 26.19 12.189 10.59-3.863 16.052-15.598 12.188-26.189z"/>
<path d="m227.7 749.35c-3.863-10.591-15.598-16.053-26.189-12.189s-16.052 15.599-12.189 26.189c3.864 10.591 15.599 16.053 26.19 12.189 10.59-3.863 16.052-15.598 12.188-26.189z"/>
<path d="m227.7 749.35c-3.863-10.591-15.598-16.053-26.189-12.189s-16.052 15.599-12.189 26.189c3.864 10.591 15.599 16.053 26.19 12.189 10.59-3.863 16.052-15.598 12.188-26.189z"/>
<path d="m227.7 749.35c-3.863-10.591-15.598-16.053-26.189-12.189s-16.052 15.599-12.189 26.189c3.864 10.591 15.599 16.053 26.19 12.189 10.59-3.863 16.052-15.598 12.188-26.189z"/>
<path d="m229.27 745.97c-3.864-10.591-15.599-16.053-26.189-12.189-10.591 3.863-16.053 15.598-12.189 26.189s15.599 16.053 26.189 12.189c10.591-3.864 16.053-15.599 12.189-26.189z"/>
<path d="m227.68 733.93c-3.863-10.59-15.598-16.052-26.189-12.188-10.591 3.863-16.052 15.598-12.189 26.189 3.864 10.591 15.599 16.052 26.19 12.189 10.59-3.864 16.052-15.599 12.188-26.19z"/>
<path d="m228.35 728.07c-3.864-10.591-15.599-16.052-26.189-12.189-10.591 3.864-16.053 15.599-12.189 26.19 3.863 10.59 15.598 16.052 26.189 12.188 10.591-3.863 16.052-15.598 12.189-26.189z"/>
<path d="m230.71 723c-3.864-10.591-15.599-16.052-26.189-12.189-10.591 3.864-16.053 15.599-12.189 26.19 3.864 10.59 15.599 16.052 26.189 12.188 10.591-3.863 16.053-15.598 12.189-26.189z"/>
<path d="m230.03 713.44c-3.864-10.591-15.599-16.052-26.19-12.189-10.591 3.864-16.052 15.599-12.189 26.189 3.864 10.591 15.599 16.053 26.19 12.189 10.59-3.863 16.052-15.598 12.189-26.189z"/>
<path d="m230.36 710.51c-3.863-10.591-15.598-16.052-26.189-12.189-10.591 3.864-16.052 15.599-12.189 26.19 3.864 10.59 15.599 16.052 26.189 12.189 10.591-3.864 16.053-15.599 12.189-26.19z"/>
<path d="m229.91 709.27c-3.864-10.59-15.599-16.052-26.19-12.189-10.59 3.864-16.052 15.599-12.188 26.19 3.863 10.591 15.598 16.052 26.189 12.189 10.591-3.864 16.052-15.599 12.189-26.19z"/>
<path d="m224.97 726.5c-3.863-10.59-15.598-16.052-26.189-12.188-10.591 3.863-16.052 15.598-12.189 26.189 3.864 10.591 15.599 16.052 26.19 12.189 10.59-3.864 16.052-15.599 12.188-26.19z"/>
<path d="m220.6 749.14c-3.864-10.591-15.599-16.052-26.189-12.189-10.591 3.864-16.053 15.599-12.189 26.19 3.863 10.59 15.598 16.052 26.189 12.188 10.591-3.863 16.053-15.598 12.189-26.189z"/>
<path d="m204.59 775.48c-2.115-5.797-8.539-8.787-14.337-6.672-5.797 2.115-8.787 8.539-6.672 14.337 2.115 5.797 8.539 8.787 14.337 6.672 5.797-2.115 8.787-8.539 6.672-14.337z"/>
<path d="m201.25 782.65c-2.115-5.798-8.539-8.788-14.337-6.673s-8.788 8.539-6.672 14.337c2.115 5.798 8.539 8.788 14.337 6.673 5.797-2.115 8.787-8.539 6.672-14.337z"/>
<path d="m197.44 793.96c-2.115-5.798-8.539-8.788-14.337-6.673-5.797 2.115-8.787 8.539-6.672 14.337s8.539 8.788 14.337 6.673 8.787-8.54 6.672-14.337z"/>
<path d="m210.69 824.83c-2.115-5.797-8.539-8.787-14.337-6.672s-8.788 8.539-6.673 14.337 8.539 8.787 14.337 6.672 8.788-8.539 6.673-14.337z"/>
<path d="m219.78 833.42c-2.115-5.798-8.539-8.788-14.337-6.673-5.797 2.115-8.787 8.54-6.672 14.337 2.115 5.798 8.539 8.788 14.337 6.673s8.788-8.539 6.672-14.337z"/>
<path d="m216.58 824.67c-2.115-5.798-8.539-8.788-14.337-6.673-5.798 2.116-8.788 8.54-6.673 14.337 2.115 5.798 8.54 8.788 14.337 6.673 5.798-2.115 8.788-8.539 6.673-14.337z"/>
<path d="m209.72 811.3c-2.115-5.797-8.54-8.787-14.337-6.672-5.798 2.115-8.788 8.539-6.673 14.337s8.539 8.787 14.337 6.672 8.788-8.539 6.673-14.337z"/>
<path d="m199.83 795.07c-2.115-5.798-8.539-8.788-14.337-6.673s-8.788 8.539-6.673 14.337 8.54 8.788 14.337 6.673c5.798-2.115 8.788-8.539 6.673-14.337z"/>
</g>
</g>
</svg>
